<svg width="20" height="20" viewBox="0 0 20 20" fill="none" xmlns="http://www.w3.org/2000/svg"><rect width="20" height="20" rx="4" fill="#D3EAF6"/><rect x="6.973" y="10.246" width="5.333" height="2" rx=".667" transform="rotate(13.322 6.973 10.246)" fill="#2F2B5B"/><path fill-rule="evenodd" clip-rule="evenodd" d="M4.234 7.369L2.992 12.51a2.667 2.667 0 001.965 3.219l6.374 1.54a2.667 2.667 0 003.219-1.967l1.286-5.324a1.993 1.993 0 01-1.43.242l-1.152 4.77a1.333 1.333 0 01-1.61.982l-6.373-1.54a1.333 1.333 0 01-.983-1.609l1.141-4.726-.085-.02a1.991 1.991 0 01-1.11-.708z" fill="#2F2B5B"/><path d="M5.009 4.1c.17-.717.888-1.16 1.604-.99l9.003 2.128c.717.17 1.16.888.991 1.605l-.503 2.126a1.333 1.333 0 01-1.604.99L5.497 7.832a1.333 1.333 0 01-.991-1.605L5.009 4.1z" stroke="#2F2B5B" stroke-width="1.333"/></svg>