<svg width="441" height="218" viewBox="0 0 441 218" fill="none" xmlns="http://www.w3.org/2000/svg">
<path d="M82.144 217.456C66.208 217.456 50.752 215.344 35.776 211.12C20.992 206.704 9.088 201.04 0.0640002 194.128L15.904 158.992C24.544 165.328 34.816 170.416 46.72 174.256C58.624 178.096 70.528 180.016 82.432 180.016C95.68 180.016 105.472 178.096 111.808 174.256C118.144 170.224 121.312 164.944 121.312 158.416C121.312 153.616 119.392 149.68 115.552 146.608C111.904 143.344 107.104 140.752 101.152 138.832C95.392 136.912 87.52 134.8 77.536 132.496C62.176 128.848 49.6 125.2 39.808 121.552C30.016 117.904 21.568 112.048 14.464 103.984C7.552 95.92 4.096 85.168 4.096 71.728C4.096 60.016 7.264 49.456 13.6 40.048C19.936 30.448 29.44 22.864 42.112 17.296C54.976 11.728 70.624 8.944 89.056 8.944C101.92 8.944 114.496 10.48 126.784 13.552C139.072 16.624 149.824 21.04 159.04 26.8L144.64 62.224C126.016 51.664 107.392 46.384 88.768 46.384C75.712 46.384 66.016 48.496 59.68 52.72C53.536 56.944 50.464 62.512 50.464 69.424C50.464 76.336 54.016 81.52 61.12 84.976C68.416 88.24 79.456 91.504 94.24 94.768C109.6 98.416 122.176 102.064 131.968 105.712C141.76 109.36 150.112 115.12 157.024 122.992C164.128 130.864 167.68 141.52 167.68 154.96C167.68 166.48 164.416 177.04 157.888 186.64C151.552 196.048 141.952 203.536 129.088 209.104C116.224 214.672 100.576 217.456 82.144 217.456ZM290.568 56.752C309.768 56.752 325.224 62.512 336.936 74.032C348.84 85.552 354.792 102.64 354.792 125.296V214H309.864V132.208C309.864 119.92 307.176 110.8 301.8 104.848C296.424 98.704 288.648 95.632 278.472 95.632C267.144 95.632 258.12 99.184 251.4 106.288C244.68 113.2 241.32 123.568 241.32 137.392V214H196.392V0.303988H241.32V75.184C247.272 69.232 254.472 64.72 262.92 61.648C271.368 58.384 280.584 56.752 290.568 56.752Z" fill="#0057D6"/>
<path d="M412.509 216.304C404.637 216.304 398.013 213.616 392.637 208.24C387.261 202.864 384.573 196.144 384.573 188.08C384.573 179.824 387.261 173.2 392.637 168.208C398.013 163.024 404.637 160.432 412.509 160.432C420.381 160.432 427.005 163.024 432.381 168.208C437.757 173.2 440.445 179.824 440.445 188.08C440.445 196.144 437.757 202.864 432.381 208.24C427.005 213.616 420.381 216.304 412.509 216.304Z" fill="black"/>
</svg>
